<mxfile host="app.diagrams.net" agent="Mozilla/5.0 (Macintosh; Intel Mac OS X 10_15_7) AppleWebKit/537.36 (KHTML, like Gecko) Chrome/133.0.0.0 Safari/537.36" version="26.0.15">
  <diagram name="第 1 页" id="7Y6GGZkNqPZYVTsqmDMv">
    <mxGraphModel dx="1967" dy="722" grid="1" gridSize="10" guides="1" tooltips="1" connect="1" arrows="1" fold="1" page="1" pageScale="1" pageWidth="827" pageHeight="1169" math="0" shadow="0">
      <root>
        <mxCell id="0" />
        <mxCell id="1" parent="0" />
        <mxCell id="SD7nv6ZnqKabCZDV9hT9-96" value="" style="rounded=0;whiteSpace=wrap;html=1;" vertex="1" parent="1">
          <mxGeometry x="-12" y="730" width="902" height="420" as="geometry" />
        </mxCell>
        <mxCell id="SD7nv6ZnqKabCZDV9hT9-33" value="" style="rounded=0;whiteSpace=wrap;html=1;" vertex="1" parent="1">
          <mxGeometry x="-12.5" y="55" width="905" height="650" as="geometry" />
        </mxCell>
        <mxCell id="SD7nv6ZnqKabCZDV9hT9-1" value="Spring循环依赖" style="rounded=0;whiteSpace=wrap;html=1;" vertex="1" parent="1">
          <mxGeometry x="380" y="70" width="120" height="60" as="geometry" />
        </mxCell>
        <mxCell id="SD7nv6ZnqKabCZDV9hT9-2" value="A&lt;div&gt;b&lt;/div&gt;" style="rounded=0;whiteSpace=wrap;html=1;" vertex="1" parent="1">
          <mxGeometry x="280" y="150" width="100" height="40" as="geometry" />
        </mxCell>
        <mxCell id="SD7nv6ZnqKabCZDV9hT9-3" value="B&lt;div&gt;a&lt;/div&gt;" style="rounded=0;whiteSpace=wrap;html=1;" vertex="1" parent="1">
          <mxGeometry x="500" y="150" width="100" height="40" as="geometry" />
        </mxCell>
        <mxCell id="SD7nv6ZnqKabCZDV9hT9-6" value="" style="edgeStyle=orthogonalEdgeStyle;rounded=0;orthogonalLoop=1;jettySize=auto;html=1;" edge="1" parent="1" source="SD7nv6ZnqKabCZDV9hT9-4" target="SD7nv6ZnqKabCZDV9hT9-5">
          <mxGeometry relative="1" as="geometry" />
        </mxCell>
        <mxCell id="SD7nv6ZnqKabCZDV9hT9-4" value="创建A对象" style="rounded=0;whiteSpace=wrap;html=1;" vertex="1" parent="1">
          <mxGeometry x="160" y="240" width="120" height="60" as="geometry" />
        </mxCell>
        <mxCell id="SD7nv6ZnqKabCZDV9hT9-8" value="" style="edgeStyle=orthogonalEdgeStyle;rounded=0;orthogonalLoop=1;jettySize=auto;html=1;" edge="1" parent="1" source="SD7nv6ZnqKabCZDV9hT9-5" target="SD7nv6ZnqKabCZDV9hT9-7">
          <mxGeometry relative="1" as="geometry" />
        </mxCell>
        <mxCell id="SD7nv6ZnqKabCZDV9hT9-5" value="执行A对象实力化操作：开辟内存空间" style="rounded=0;whiteSpace=wrap;html=1;" vertex="1" parent="1">
          <mxGeometry x="360" y="240" width="120" height="60" as="geometry" />
        </mxCell>
        <mxCell id="SD7nv6ZnqKabCZDV9hT9-11" value="" style="edgeStyle=orthogonalEdgeStyle;rounded=0;orthogonalLoop=1;jettySize=auto;html=1;" edge="1" parent="1" source="SD7nv6ZnqKabCZDV9hT9-7" target="SD7nv6ZnqKabCZDV9hT9-10">
          <mxGeometry relative="1" as="geometry" />
        </mxCell>
        <mxCell id="SD7nv6ZnqKabCZDV9hT9-7" value="执行A对象初始化：属性赋值" style="rounded=0;whiteSpace=wrap;html=1;" vertex="1" parent="1">
          <mxGeometry x="560" y="240" width="120" height="60" as="geometry" />
        </mxCell>
        <mxCell id="SD7nv6ZnqKabCZDV9hT9-13" value="" style="edgeStyle=orthogonalEdgeStyle;rounded=0;orthogonalLoop=1;jettySize=auto;html=1;" edge="1" parent="1" source="SD7nv6ZnqKabCZDV9hT9-10" target="SD7nv6ZnqKabCZDV9hT9-12">
          <mxGeometry relative="1" as="geometry" />
        </mxCell>
        <mxCell id="SD7nv6ZnqKabCZDV9hT9-14" value="存在" style="edgeLabel;html=1;align=center;verticalAlign=middle;resizable=0;points=[];" vertex="1" connectable="0" parent="SD7nv6ZnqKabCZDV9hT9-13">
          <mxGeometry x="-0.1" y="1" relative="1" as="geometry">
            <mxPoint as="offset" />
          </mxGeometry>
        </mxCell>
        <mxCell id="SD7nv6ZnqKabCZDV9hT9-16" value="" style="edgeStyle=orthogonalEdgeStyle;rounded=0;orthogonalLoop=1;jettySize=auto;html=1;" edge="1" parent="1" source="SD7nv6ZnqKabCZDV9hT9-10" target="SD7nv6ZnqKabCZDV9hT9-15">
          <mxGeometry relative="1" as="geometry" />
        </mxCell>
        <mxCell id="SD7nv6ZnqKabCZDV9hT9-17" value="不存在" style="edgeLabel;html=1;align=center;verticalAlign=middle;resizable=0;points=[];" vertex="1" connectable="0" parent="SD7nv6ZnqKabCZDV9hT9-16">
          <mxGeometry x="-0.2444" y="2" relative="1" as="geometry">
            <mxPoint as="offset" />
          </mxGeometry>
        </mxCell>
        <mxCell id="SD7nv6ZnqKabCZDV9hT9-10" value="是否存在B对象" style="rhombus;whiteSpace=wrap;html=1;rounded=0;" vertex="1" parent="1">
          <mxGeometry x="560" y="340" width="120" height="80" as="geometry" />
        </mxCell>
        <mxCell id="SD7nv6ZnqKabCZDV9hT9-12" value="直接完成赋值即可" style="whiteSpace=wrap;html=1;rounded=0;" vertex="1" parent="1">
          <mxGeometry x="740" y="350" width="90" height="60" as="geometry" />
        </mxCell>
        <mxCell id="SD7nv6ZnqKabCZDV9hT9-19" value="" style="edgeStyle=orthogonalEdgeStyle;rounded=0;orthogonalLoop=1;jettySize=auto;html=1;" edge="1" parent="1" source="SD7nv6ZnqKabCZDV9hT9-15" target="SD7nv6ZnqKabCZDV9hT9-18">
          <mxGeometry relative="1" as="geometry" />
        </mxCell>
        <mxCell id="SD7nv6ZnqKabCZDV9hT9-15" value="创建B对象" style="whiteSpace=wrap;html=1;rounded=0;" vertex="1" parent="1">
          <mxGeometry x="560" y="460" width="120" height="60" as="geometry" />
        </mxCell>
        <mxCell id="SD7nv6ZnqKabCZDV9hT9-21" value="" style="edgeStyle=orthogonalEdgeStyle;rounded=0;orthogonalLoop=1;jettySize=auto;html=1;" edge="1" parent="1" source="SD7nv6ZnqKabCZDV9hT9-18" target="SD7nv6ZnqKabCZDV9hT9-20">
          <mxGeometry relative="1" as="geometry" />
        </mxCell>
        <mxCell id="SD7nv6ZnqKabCZDV9hT9-18" value="执行B对象实例化操作：开辟内存空间" style="whiteSpace=wrap;html=1;rounded=0;" vertex="1" parent="1">
          <mxGeometry x="360" y="460" width="120" height="60" as="geometry" />
        </mxCell>
        <mxCell id="SD7nv6ZnqKabCZDV9hT9-23" value="" style="edgeStyle=orthogonalEdgeStyle;rounded=0;orthogonalLoop=1;jettySize=auto;html=1;" edge="1" parent="1" source="SD7nv6ZnqKabCZDV9hT9-20">
          <mxGeometry relative="1" as="geometry">
            <mxPoint x="220" y="410" as="targetPoint" />
          </mxGeometry>
        </mxCell>
        <mxCell id="SD7nv6ZnqKabCZDV9hT9-20" value="执行B对象初始化操作：属性赋值" style="whiteSpace=wrap;html=1;rounded=0;" vertex="1" parent="1">
          <mxGeometry x="160" y="460" width="120" height="60" as="geometry" />
        </mxCell>
        <mxCell id="SD7nv6ZnqKabCZDV9hT9-26" value="" style="edgeStyle=orthogonalEdgeStyle;rounded=0;orthogonalLoop=1;jettySize=auto;html=1;" edge="1" parent="1" source="SD7nv6ZnqKabCZDV9hT9-24" target="SD7nv6ZnqKabCZDV9hT9-25">
          <mxGeometry relative="1" as="geometry" />
        </mxCell>
        <mxCell id="SD7nv6ZnqKabCZDV9hT9-27" value="存在" style="edgeLabel;html=1;align=center;verticalAlign=middle;resizable=0;points=[];" vertex="1" connectable="0" parent="SD7nv6ZnqKabCZDV9hT9-26">
          <mxGeometry x="-0.075" y="1" relative="1" as="geometry">
            <mxPoint as="offset" />
          </mxGeometry>
        </mxCell>
        <mxCell id="SD7nv6ZnqKabCZDV9hT9-28" style="edgeStyle=orthogonalEdgeStyle;rounded=0;orthogonalLoop=1;jettySize=auto;html=1;exitX=0.5;exitY=0;exitDx=0;exitDy=0;entryX=0.5;entryY=1;entryDx=0;entryDy=0;" edge="1" parent="1" source="SD7nv6ZnqKabCZDV9hT9-24" target="SD7nv6ZnqKabCZDV9hT9-4">
          <mxGeometry relative="1" as="geometry" />
        </mxCell>
        <mxCell id="SD7nv6ZnqKabCZDV9hT9-29" value="不存在" style="edgeLabel;html=1;align=center;verticalAlign=middle;resizable=0;points=[];" vertex="1" connectable="0" parent="SD7nv6ZnqKabCZDV9hT9-28">
          <mxGeometry x="0.25" y="2" relative="1" as="geometry">
            <mxPoint x="2" y="5" as="offset" />
          </mxGeometry>
        </mxCell>
        <mxCell id="SD7nv6ZnqKabCZDV9hT9-24" value="是否存在A对象" style="rhombus;whiteSpace=wrap;html=1;rounded=0;" vertex="1" parent="1">
          <mxGeometry x="160" y="340" width="120" height="80" as="geometry" />
        </mxCell>
        <mxCell id="SD7nv6ZnqKabCZDV9hT9-25" value="直接赋值即可" style="whiteSpace=wrap;html=1;rounded=0;" vertex="1" parent="1">
          <mxGeometry x="20" y="350" width="90" height="60" as="geometry" />
        </mxCell>
        <mxCell id="SD7nv6ZnqKabCZDV9hT9-32" value="思路：对象的实例化和初始化是否可以分开执行&lt;div&gt;答：可以&lt;/div&gt;" style="text;html=1;align=center;verticalAlign=middle;whiteSpace=wrap;rounded=0;fillColor=#fff2cc;strokeColor=#d6b656;" vertex="1" parent="1">
          <mxGeometry x="285" y="545" width="270" height="40" as="geometry" />
        </mxCell>
        <mxCell id="SD7nv6ZnqKabCZDV9hT9-36" value="" style="edgeStyle=orthogonalEdgeStyle;rounded=0;orthogonalLoop=1;jettySize=auto;html=1;" edge="1" parent="1" source="SD7nv6ZnqKabCZDV9hT9-34" target="SD7nv6ZnqKabCZDV9hT9-35">
          <mxGeometry relative="1" as="geometry" />
        </mxCell>
        <mxCell id="SD7nv6ZnqKabCZDV9hT9-38" style="edgeStyle=orthogonalEdgeStyle;rounded=0;orthogonalLoop=1;jettySize=auto;html=1;exitX=1;exitY=0.5;exitDx=0;exitDy=0;entryX=0;entryY=0.5;entryDx=0;entryDy=0;" edge="1" parent="1" source="SD7nv6ZnqKabCZDV9hT9-34" target="SD7nv6ZnqKabCZDV9hT9-37">
          <mxGeometry relative="1" as="geometry" />
        </mxCell>
        <mxCell id="SD7nv6ZnqKabCZDV9hT9-34" value="对象按照类型分类" style="text;html=1;align=center;verticalAlign=middle;whiteSpace=wrap;rounded=0;fillColor=#fff2cc;strokeColor=#d6b656;" vertex="1" parent="1">
          <mxGeometry x="285" y="620" width="101" height="30" as="geometry" />
        </mxCell>
        <mxCell id="SD7nv6ZnqKabCZDV9hT9-35" value="成品对象" style="whiteSpace=wrap;html=1;fillColor=#fff2cc;strokeColor=#d6b656;gradientColor=none;rounded=0;" vertex="1" parent="1">
          <mxGeometry x="455" y="590" width="100" height="30" as="geometry" />
        </mxCell>
        <mxCell id="SD7nv6ZnqKabCZDV9hT9-37" value="半成品对象" style="whiteSpace=wrap;html=1;fillColor=#fff2cc;strokeColor=#d6b656;gradientColor=none;rounded=0;" vertex="1" parent="1">
          <mxGeometry x="455" y="640" width="100" height="30" as="geometry" />
        </mxCell>
        <mxCell id="SD7nv6ZnqKabCZDV9hT9-63" value="" style="edgeStyle=orthogonalEdgeStyle;rounded=0;orthogonalLoop=1;jettySize=auto;html=1;" edge="1" parent="1" source="SD7nv6ZnqKabCZDV9hT9-64" target="SD7nv6ZnqKabCZDV9hT9-66">
          <mxGeometry relative="1" as="geometry" />
        </mxCell>
        <mxCell id="SD7nv6ZnqKabCZDV9hT9-64" value="创建A对象" style="rounded=0;whiteSpace=wrap;html=1;" vertex="1" parent="1">
          <mxGeometry x="155" y="770" width="120" height="60" as="geometry" />
        </mxCell>
        <mxCell id="SD7nv6ZnqKabCZDV9hT9-65" value="" style="edgeStyle=orthogonalEdgeStyle;rounded=0;orthogonalLoop=1;jettySize=auto;html=1;" edge="1" parent="1" source="SD7nv6ZnqKabCZDV9hT9-66" target="SD7nv6ZnqKabCZDV9hT9-68">
          <mxGeometry relative="1" as="geometry" />
        </mxCell>
        <mxCell id="SD7nv6ZnqKabCZDV9hT9-88" value="" style="edgeStyle=orthogonalEdgeStyle;rounded=0;orthogonalLoop=1;jettySize=auto;html=1;" edge="1" parent="1" source="SD7nv6ZnqKabCZDV9hT9-66" target="SD7nv6ZnqKabCZDV9hT9-87">
          <mxGeometry relative="1" as="geometry" />
        </mxCell>
        <mxCell id="SD7nv6ZnqKabCZDV9hT9-89" value="把A的半成品对象，放入缓存空间" style="edgeLabel;html=1;align=center;verticalAlign=middle;resizable=0;points=[];" vertex="1" connectable="0" parent="SD7nv6ZnqKabCZDV9hT9-88">
          <mxGeometry x="-0.4" y="-2" relative="1" as="geometry">
            <mxPoint as="offset" />
          </mxGeometry>
        </mxCell>
        <mxCell id="SD7nv6ZnqKabCZDV9hT9-66" value="执行A对象实力化操作：开辟内存空间" style="rounded=0;whiteSpace=wrap;html=1;" vertex="1" parent="1">
          <mxGeometry x="355" y="770" width="120" height="60" as="geometry" />
        </mxCell>
        <mxCell id="SD7nv6ZnqKabCZDV9hT9-67" value="" style="edgeStyle=orthogonalEdgeStyle;rounded=0;orthogonalLoop=1;jettySize=auto;html=1;" edge="1" parent="1" source="SD7nv6ZnqKabCZDV9hT9-68" target="SD7nv6ZnqKabCZDV9hT9-73">
          <mxGeometry relative="1" as="geometry" />
        </mxCell>
        <mxCell id="SD7nv6ZnqKabCZDV9hT9-68" value="执行A对象初始化：属性赋值" style="rounded=0;whiteSpace=wrap;html=1;" vertex="1" parent="1">
          <mxGeometry x="555" y="770" width="120" height="60" as="geometry" />
        </mxCell>
        <mxCell id="SD7nv6ZnqKabCZDV9hT9-69" value="" style="edgeStyle=orthogonalEdgeStyle;rounded=0;orthogonalLoop=1;jettySize=auto;html=1;" edge="1" parent="1" source="SD7nv6ZnqKabCZDV9hT9-73" target="SD7nv6ZnqKabCZDV9hT9-74">
          <mxGeometry relative="1" as="geometry" />
        </mxCell>
        <mxCell id="SD7nv6ZnqKabCZDV9hT9-70" value="存在" style="edgeLabel;html=1;align=center;verticalAlign=middle;resizable=0;points=[];" vertex="1" connectable="0" parent="SD7nv6ZnqKabCZDV9hT9-69">
          <mxGeometry x="-0.1" y="1" relative="1" as="geometry">
            <mxPoint as="offset" />
          </mxGeometry>
        </mxCell>
        <mxCell id="SD7nv6ZnqKabCZDV9hT9-71" value="" style="edgeStyle=orthogonalEdgeStyle;rounded=0;orthogonalLoop=1;jettySize=auto;html=1;" edge="1" parent="1" source="SD7nv6ZnqKabCZDV9hT9-73" target="SD7nv6ZnqKabCZDV9hT9-76">
          <mxGeometry relative="1" as="geometry" />
        </mxCell>
        <mxCell id="SD7nv6ZnqKabCZDV9hT9-72" value="不存在" style="edgeLabel;html=1;align=center;verticalAlign=middle;resizable=0;points=[];" vertex="1" connectable="0" parent="SD7nv6ZnqKabCZDV9hT9-71">
          <mxGeometry x="-0.2444" y="2" relative="1" as="geometry">
            <mxPoint as="offset" />
          </mxGeometry>
        </mxCell>
        <mxCell id="SD7nv6ZnqKabCZDV9hT9-92" style="edgeStyle=orthogonalEdgeStyle;rounded=0;orthogonalLoop=1;jettySize=auto;html=1;exitX=0;exitY=0.5;exitDx=0;exitDy=0;entryX=1;entryY=0.5;entryDx=0;entryDy=0;dashed=1;" edge="1" parent="1" source="SD7nv6ZnqKabCZDV9hT9-73" target="SD7nv6ZnqKabCZDV9hT9-87">
          <mxGeometry relative="1" as="geometry" />
        </mxCell>
        <mxCell id="SD7nv6ZnqKabCZDV9hT9-93" value="先去缓存中查找" style="edgeLabel;html=1;align=center;verticalAlign=middle;resizable=0;points=[];" vertex="1" connectable="0" parent="SD7nv6ZnqKabCZDV9hT9-92">
          <mxGeometry x="0.2" y="-1" relative="1" as="geometry">
            <mxPoint x="10" y="-9" as="offset" />
          </mxGeometry>
        </mxCell>
        <mxCell id="SD7nv6ZnqKabCZDV9hT9-73" value="是否存在B对象" style="rhombus;whiteSpace=wrap;html=1;rounded=0;" vertex="1" parent="1">
          <mxGeometry x="555" y="870" width="120" height="80" as="geometry" />
        </mxCell>
        <mxCell id="SD7nv6ZnqKabCZDV9hT9-74" value="直接完成赋值即可" style="whiteSpace=wrap;html=1;rounded=0;" vertex="1" parent="1">
          <mxGeometry x="735" y="880" width="90" height="60" as="geometry" />
        </mxCell>
        <mxCell id="SD7nv6ZnqKabCZDV9hT9-75" value="" style="edgeStyle=orthogonalEdgeStyle;rounded=0;orthogonalLoop=1;jettySize=auto;html=1;" edge="1" parent="1" source="SD7nv6ZnqKabCZDV9hT9-76" target="SD7nv6ZnqKabCZDV9hT9-78">
          <mxGeometry relative="1" as="geometry" />
        </mxCell>
        <mxCell id="SD7nv6ZnqKabCZDV9hT9-76" value="创建B对象" style="whiteSpace=wrap;html=1;rounded=0;" vertex="1" parent="1">
          <mxGeometry x="555" y="990" width="120" height="60" as="geometry" />
        </mxCell>
        <mxCell id="SD7nv6ZnqKabCZDV9hT9-77" value="" style="edgeStyle=orthogonalEdgeStyle;rounded=0;orthogonalLoop=1;jettySize=auto;html=1;" edge="1" parent="1" source="SD7nv6ZnqKabCZDV9hT9-78" target="SD7nv6ZnqKabCZDV9hT9-80">
          <mxGeometry relative="1" as="geometry" />
        </mxCell>
        <mxCell id="SD7nv6ZnqKabCZDV9hT9-90" value="把B的半成品对象，放入缓存空间" style="edgeStyle=orthogonalEdgeStyle;rounded=0;orthogonalLoop=1;jettySize=auto;html=1;exitX=0.5;exitY=0;exitDx=0;exitDy=0;entryX=0.5;entryY=1;entryDx=0;entryDy=0;" edge="1" parent="1" source="SD7nv6ZnqKabCZDV9hT9-78" target="SD7nv6ZnqKabCZDV9hT9-87">
          <mxGeometry relative="1" as="geometry" />
        </mxCell>
        <mxCell id="SD7nv6ZnqKabCZDV9hT9-91" value="&lt;span style=&quot;color: rgba(0, 0, 0, 0); font-family: monospace; font-size: 0px; text-align: start; background-color: rgb(251, 251, 251);&quot;&gt;%3CmxGraphModel%3E%3Croot%3E%3CmxCell%20id%3D%220%22%2F%3E%3CmxCell%20id%3D%221%22%20parent%3D%220%22%2F%3E%3CmxCell%20id%3D%222%22%20value%3D%22%E6%8A%8AA%E7%9A%84%E5%8D%8A%E6%88%90%E5%93%81%E5%AF%B9%E8%B1%A1%EF%BC%8C%E6%94%BE%E5%85%A5%E7%BC%93%E5%AD%98%E7%A9%BA%E9%97%B4%22%20style%3D%22edgeLabel%3Bhtml%3D1%3Balign%3Dcenter%3BverticalAlign%3Dmiddle%3Bresizable%3D0%3Bpoints%3D%5B%5D%3B%22%20vertex%3D%221%22%20connectable%3D%220%22%20parent%3D%221%22%3E%3CmxGeometry%20x%3D%22413%22%20y%3D%22842%22%20as%3D%22geometry%22%2F%3E%3C%2FmxCell%3E%3C%2Froot%3E%3C%2FmxGraphModel%3E&lt;/span&gt;" style="edgeLabel;html=1;align=center;verticalAlign=middle;resizable=0;points=[];" vertex="1" connectable="0" parent="SD7nv6ZnqKabCZDV9hT9-90">
          <mxGeometry x="-0.05" relative="1" as="geometry">
            <mxPoint as="offset" />
          </mxGeometry>
        </mxCell>
        <mxCell id="SD7nv6ZnqKabCZDV9hT9-78" value="执行B对象实例化操作：开辟内存空间" style="whiteSpace=wrap;html=1;rounded=0;" vertex="1" parent="1">
          <mxGeometry x="355" y="990" width="120" height="60" as="geometry" />
        </mxCell>
        <mxCell id="SD7nv6ZnqKabCZDV9hT9-79" value="" style="edgeStyle=orthogonalEdgeStyle;rounded=0;orthogonalLoop=1;jettySize=auto;html=1;" edge="1" parent="1" source="SD7nv6ZnqKabCZDV9hT9-80">
          <mxGeometry relative="1" as="geometry">
            <mxPoint x="215" y="940" as="targetPoint" />
          </mxGeometry>
        </mxCell>
        <mxCell id="SD7nv6ZnqKabCZDV9hT9-80" value="执行B对象初始化操作：属性赋值" style="whiteSpace=wrap;html=1;rounded=0;" vertex="1" parent="1">
          <mxGeometry x="155" y="990" width="120" height="60" as="geometry" />
        </mxCell>
        <mxCell id="SD7nv6ZnqKabCZDV9hT9-81" value="" style="edgeStyle=orthogonalEdgeStyle;rounded=0;orthogonalLoop=1;jettySize=auto;html=1;" edge="1" parent="1" source="SD7nv6ZnqKabCZDV9hT9-85" target="SD7nv6ZnqKabCZDV9hT9-86">
          <mxGeometry relative="1" as="geometry" />
        </mxCell>
        <mxCell id="SD7nv6ZnqKabCZDV9hT9-82" value="存在" style="edgeLabel;html=1;align=center;verticalAlign=middle;resizable=0;points=[];" vertex="1" connectable="0" parent="SD7nv6ZnqKabCZDV9hT9-81">
          <mxGeometry x="-0.075" y="1" relative="1" as="geometry">
            <mxPoint as="offset" />
          </mxGeometry>
        </mxCell>
        <mxCell id="SD7nv6ZnqKabCZDV9hT9-94" style="edgeStyle=orthogonalEdgeStyle;rounded=0;orthogonalLoop=1;jettySize=auto;html=1;exitX=1;exitY=0.5;exitDx=0;exitDy=0;dashed=1;" edge="1" parent="1" source="SD7nv6ZnqKabCZDV9hT9-85" target="SD7nv6ZnqKabCZDV9hT9-87">
          <mxGeometry relative="1" as="geometry" />
        </mxCell>
        <mxCell id="SD7nv6ZnqKabCZDV9hT9-95" value="先去缓存中查找" style="edgeLabel;html=1;align=center;verticalAlign=middle;resizable=0;points=[];" vertex="1" connectable="0" parent="SD7nv6ZnqKabCZDV9hT9-94">
          <mxGeometry x="-0.2" y="3" relative="1" as="geometry">
            <mxPoint x="5" y="-7" as="offset" />
          </mxGeometry>
        </mxCell>
        <mxCell id="SD7nv6ZnqKabCZDV9hT9-85" value="是否存在A对象" style="rhombus;whiteSpace=wrap;html=1;rounded=0;" vertex="1" parent="1">
          <mxGeometry x="155" y="870" width="120" height="80" as="geometry" />
        </mxCell>
        <mxCell id="SD7nv6ZnqKabCZDV9hT9-86" value="直接赋值即可" style="whiteSpace=wrap;html=1;rounded=0;" vertex="1" parent="1">
          <mxGeometry x="15" y="880" width="90" height="60" as="geometry" />
        </mxCell>
        <mxCell id="SD7nv6ZnqKabCZDV9hT9-87" value="缓存空间&lt;div&gt;A：半&lt;/div&gt;&lt;div&gt;B：半&lt;/div&gt;&lt;div&gt;B：全&lt;/div&gt;&lt;div&gt;A：全&lt;/div&gt;" style="whiteSpace=wrap;html=1;aspect=fixed;" vertex="1" parent="1">
          <mxGeometry x="375" y="870" width="80" height="80" as="geometry" />
        </mxCell>
        <mxCell id="SD7nv6ZnqKabCZDV9hT9-98" value="引入缓存空间，提前暴露半成品对象，解决循环依赖问题" style="text;html=1;align=center;verticalAlign=middle;whiteSpace=wrap;rounded=0;fillColor=#fff2cc;strokeColor=#d6b656;" vertex="1" parent="1">
          <mxGeometry x="306" y="1070" width="215" height="60" as="geometry" />
        </mxCell>
      </root>
    </mxGraphModel>
  </diagram>
</mxfile>
